<svg width="16" height="20" viewBox="0 0 16 20" fill="none" xmlns="http://www.w3.org/2000/svg">
<path d="M6.95 11.35L11.9 6.4L10.475 4.975L6.95 8.5L5.55 7.1L4.125 8.525L6.95 11.35ZM8 17.35C10.0333 15.4833 11.5417 13.7877 12.525 12.263C13.5083 10.7383 14 9.384 14 8.2C14 6.38333 13.421 4.896 12.263 3.738C11.105 2.58 9.684 2.00067 8 2C6.316 1.99933 4.89533 2.57867 3.738 3.738C2.58067 4.89733 2.00133 6.38467 2 8.2C2 9.38333 2.49167 10.7377 3.475 12.263C4.45833 13.7883 5.96667 15.484 8 17.35ZM8 20C5.31667 17.7167 3.31267 15.596 1.988 13.638C0.663333 11.68 0.000666667 9.86733 0 8.2C0 5.7 0.804333 3.70833 2.413 2.225C4.02167 0.741667 5.884 0 8 0C10.116 0 11.9787 0.741667 13.588 2.225C15.1973 3.70833 16.0013 5.7 16 8.2C16 9.86667 15.3377 11.6793 14.013 13.638C12.6883 15.5967 10.684 17.7173 8 20Z" fill="#FF9F1C"/>
</svg>
