<svg width="22" height="18" viewBox="0 0 22 18" fill="none" xmlns="http://www.w3.org/2000/svg">
<path d="M1 9C1 5.229 1 3.343 2.172 2.172C3.343 1 5.229 1 9 1H13C16.771 1 18.657 1 19.828 2.172C21 3.343 21 5.229 21 9C21 12.771 21 14.657 19.828 15.828C18.657 17 16.771 17 13 17H9C5.229 17 3.343 17 2.172 15.828C1 14.657 1 12.771 1 9Z" stroke="#FF9F1C" stroke-width="1.5"/>
<path d="M5 5L7.159 6.8C8.996 8.33 9.914 9.095 11 9.095C12.086 9.095 13.005 8.33 14.841 6.799L17 5" stroke="#FF9F1C" stroke-width="1.5" stroke-linecap="round"/>
</svg>
